<svg width="1280" height="538" viewBox="0 0 1280 538" fill="none" xmlns="http://www.w3.org/2000/svg">
<g clip-path="url(#clip0_44_689)">
<path d="M1129.8 43.2984C1145.23 49.6686 1159.8 57.3128 1173.95 66.2311C1268.68 124.837 1328.69 239.075 1311.12 348.218C1293.12 459.059 1174.81 616.614 1057.79 639.547C1019.64 647.191 980.628 636.574 943.335 625.108C880.751 605.997 822.026 574.996 760.3 557.159C736.295 550.365 710.147 548.666 687 558.009C646.707 574.146 636.848 608.97 619.702 644.218C600.412 684.138 567.834 717.688 528.398 738.497C447.383 780.965 342.791 761.005 267.777 715.14C156.327 647.191 116.463 513.417 153.327 391.959C162.757 360.533 177.76 329.532 202.622 307.448C245.059 269.227 308.928 262.432 364.653 276.447C403.232 286.214 438.381 304.9 471.816 325.285C499.25 342.272 524.54 365.629 558.404 365.629C626.989 366.054 647.993 278.57 669.854 229.732C698.574 165.181 747.012 108.699 807.023 70.9025C903.899 9.32416 1024.35 -1.2928 1129.8 43.2984Z" fill="url(#paint0_linear_44_689)"/>
<path d="M1129.84 43.5566C1145.26 49.9254 1159.83 57.5681 1173.97 66.4845C1268.65 125.078 1328.64 239.293 1311.07 348.414C1293.08 459.232 1174.82 616.756 1057.85 639.684C1019.72 647.326 980.733 636.712 943.458 625.248C880.904 606.141 822.206 575.146 760.508 557.313C736.515 550.519 710.379 548.821 687.243 558.162C646.968 574.297 637.114 609.113 619.976 644.354C600.695 684.266 568.133 717.809 528.715 738.614C447.737 781.073 343.195 761.117 268.215 715.261C156.818 647.326 116.972 513.58 153.818 392.147C163.245 360.727 178.24 329.732 203.091 307.653C245.508 269.439 309.347 262.646 365.046 276.658C403.607 286.423 438.74 305.105 472.159 325.486C499.58 342.469 524.859 365.822 558.707 365.822C627.259 366.246 648.254 278.781 670.105 229.952C698.811 165.414 747.226 108.944 807.21 71.155C904.04 9.58919 1024.44 -1.02561 1129.84 43.5566Z" fill="url(#paint1_radial_44_689)"/>
<path d="M120.32 915.588C-73.431 770.773 39.7335 451.839 226.198 354.163C296.068 317.641 377.513 303.626 455.956 313.819C526.684 323.161 614.987 346.943 687.429 319.764C742.297 298.955 767.587 247.569 796.307 200.854C876.036 70.9025 1077.07 46.6958 1176.95 169.853C1213.82 215.293 1228.82 278.57 1210.81 334.203C1168.38 463.305 1026.07 408.097 945.478 477.32C913.329 504.924 904.756 560.132 885.895 597.079C866.606 634.875 843.03 670.973 817.74 705.372C764.587 777.992 699.86 844.242 625.274 895.628C476.531 998.4 290.496 1028.98 133.18 924.931C128.893 921.958 124.607 918.985 120.32 915.588Z" fill="url(#paint2_linear_44_689)"/>
<path d="M120.32 915.588C-73.431 770.773 39.7335 451.839 226.198 354.163C296.068 317.641 377.513 303.626 455.956 313.819C526.684 323.161 614.987 346.943 687.429 319.764C742.297 298.955 767.587 247.569 796.307 200.854C876.036 70.9025 1077.07 46.6958 1176.95 169.853C1213.82 215.293 1228.82 278.57 1210.81 334.203C1168.38 463.305 1026.07 408.097 945.478 477.32C913.329 504.924 904.756 560.132 885.895 597.079C866.606 634.875 843.03 670.973 817.74 705.372C764.587 777.992 699.86 844.242 625.274 895.628C476.531 998.4 290.496 1028.98 133.18 924.931C128.893 921.958 124.607 918.985 120.32 915.588Z" fill="url(#paint3_radial_44_689)"/>
</g>
<g clip-path="url(#clip1_44_689)">
<path d="M9.66547 855.097C-166.645 722.073 -63.667 429.109 106.012 339.386C169.593 305.837 243.705 292.964 315.087 302.326C379.448 310.909 459.802 332.754 525.723 307.788C575.652 288.673 598.666 241.471 624.8 198.56C697.352 79.1899 880.293 56.9542 971.179 170.083C1004.72 211.824 1018.38 269.948 1001.99 321.051C963.377 439.641 833.875 388.928 760.543 452.515C731.288 477.871 723.487 528.584 706.324 562.523C688.771 597.241 667.317 630.4 644.303 661.998C595.935 728.705 537.035 789.56 469.164 836.762C333.811 931.166 164.522 959.253 21.3675 863.679C17.4669 860.948 13.5661 858.218 9.66547 855.097Z" fill="url(#paint4_linear_44_689)"/>
<path d="M9.66547 855.097C-166.645 722.073 -63.667 429.109 106.012 339.386C169.593 305.837 243.705 292.964 315.087 302.326C379.448 310.909 459.802 332.754 525.723 307.788C575.652 288.673 598.666 241.471 624.8 198.56C697.352 79.1899 880.293 56.9542 971.179 170.083C1004.72 211.824 1018.38 269.948 1001.99 321.051C963.377 439.641 833.875 388.928 760.543 452.515C731.288 477.871 723.487 528.584 706.324 562.523C688.771 597.241 667.317 630.4 644.303 661.998C595.935 728.705 537.035 789.56 469.164 836.762C333.811 931.166 164.522 959.253 21.3675 863.679C17.4669 860.948 13.5661 858.218 9.66547 855.097Z" fill="url(#paint5_radial_44_689)"/>
<path d="M102.5 152C82.3416 152 66 135.658 66 115.5C66 95.3416 82.3416 79 102.5 79C122.658 79 139 95.3416 139 115.5C139 135.658 122.658 152 102.5 152Z" fill="url(#paint6_linear_44_689)"/>
<path d="M323.5 269C306.103 269 292 254.897 292 237.5C292 220.103 306.103 206 323.5 206C340.897 206 355 220.103 355 237.5C355 254.897 340.897 269 323.5 269Z" fill="url(#paint7_linear_44_689)"/>
</g>
<defs>
<linearGradient id="paint0_linear_44_689" x1="74.366" y1="776.404" x2="1691.4" y2="-115" gradientUnits="userSpaceOnUse">
<stop stop-color="#FF9370"/>
<stop offset="1" stop-color="#FFDF00"/>
</linearGradient>
<radialGradient id="paint1_radial_44_689" cx="0" cy="0" r="1" gradientUnits="userSpaceOnUse" gradientTransform="translate(732.53 -99.209) rotate(79.6257) scale(1313.6 1235.52)">
<stop stop-color="#FEBB40"/>
<stop offset="0.5576" stop-color="#EC4C76"/>
<stop offset="0.9726" stop-color="#D60B52"/>
</radialGradient>
<linearGradient id="paint2_linear_44_689" x1="1195.45" y1="-450.926" x2="167.503" y2="1208.7" gradientUnits="userSpaceOnUse">
<stop stop-color="#FFDF00"/>
<stop offset="1" stop-color="#FF9370"/>
</linearGradient>
<radialGradient id="paint3_radial_44_689" cx="0" cy="0" r="1" gradientUnits="userSpaceOnUse" gradientTransform="translate(891.512 161.069) rotate(-122.724) scale(1401.84 2365.81)">
<stop stop-color="#FEBB40"/>
<stop offset="0.5576" stop-color="#EC4C76"/>
<stop offset="0.9726" stop-color="#D60B52"/>
</radialGradient>
<linearGradient id="paint4_linear_44_689" x1="988.014" y1="-400.149" x2="39.8375" y2="1116.36" gradientUnits="userSpaceOnUse">
<stop stop-color="#FFDF00"/>
<stop offset="1" stop-color="#FF9370"/>
</linearGradient>
<radialGradient id="paint5_radial_44_689" cx="0" cy="0" r="1" gradientUnits="userSpaceOnUse" gradientTransform="translate(711.435 162.015) rotate(-122.48) scale(1284.19 2158.72)">
<stop stop-color="#FEBB40"/>
<stop offset="0.5576" stop-color="#EC4C76"/>
<stop offset="0.9726" stop-color="#D60B52"/>
</radialGradient>
<linearGradient id="paint6_linear_44_689" x1="17.2324" y1="175.573" x2="191.273" y2="52.6448" gradientUnits="userSpaceOnUse">
<stop stop-color="#EC4C76"/>
<stop offset="0.703531" stop-color="#FEBB40"/>
<stop offset="1" stop-color="white"/>
</linearGradient>
<linearGradient id="paint7_linear_44_689" x1="249.913" y1="289.344" x2="400.113" y2="183.255" gradientUnits="userSpaceOnUse">
<stop stop-color="#EC4C76"/>
<stop offset="0.5183" stop-color="#FEBB40"/>
<stop offset="1" stop-color="white"/>
</linearGradient>
<clipPath id="clip0_44_689">
<rect width="511" height="393" fill="white" transform="translate(803 16)"/>
</clipPath>
<clipPath id="clip1_44_689">
<rect width="1178" height="538" fill="white" transform="matrix(-1 0 0 1 1096 0)"/>
</clipPath>
</defs>
</svg>
