<svg width="1250" height="488" viewBox="0 0 1250 488" fill="none" xmlns="http://www.w3.org/2000/svg">
<g clip-path="url(#clip0_44_689)">
<path d="M1082.05 39.2745C1096.05 45.0526 1109.27 51.9864 1122.1 60.0758C1208.02 113.235 1262.46 216.856 1246.52 315.855C1230.19 416.395 1122.87 559.308 1016.73 580.11C982.123 587.043 946.74 577.413 912.913 567.012C856.146 549.678 802.879 521.558 746.889 505.379C725.115 499.215 701.398 497.675 680.402 506.149C643.853 520.787 634.91 552.374 619.358 584.347C601.861 620.557 572.311 650.988 536.54 669.863C463.054 708.384 368.183 690.28 300.14 648.677C199.048 587.043 162.888 465.702 196.326 355.532C204.88 327.026 218.489 298.906 241.04 278.875C279.533 244.206 337.466 238.043 388.012 250.755C423.006 259.615 454.888 276.564 485.216 295.054C510.1 310.462 533.04 331.649 563.757 331.649C625.967 332.034 645.019 252.681 664.849 208.382C690.9 149.83 734.836 98.5968 789.27 64.3131C877.142 8.45765 986.4 -1.1726 1082.05 39.2745Z" fill="url(#paint0_linear_44_689)"/>
<path d="M1082.08 39.5086C1096.07 45.2855 1109.29 52.2179 1122.11 60.3057C1208 113.454 1262.41 217.054 1246.47 316.033C1230.15 416.553 1122.89 559.436 1016.79 580.233C982.202 587.166 946.836 577.538 913.025 567.139C856.284 549.808 803.042 521.694 747.078 505.518C725.315 499.356 701.608 497.815 680.622 506.288C644.09 520.923 635.152 552.504 619.606 584.47C602.118 620.672 572.581 651.098 536.827 669.969C463.375 708.482 368.548 690.381 300.537 648.787C199.493 587.166 163.35 465.849 196.772 355.702C205.322 327.202 218.924 299.087 241.465 279.061C279.94 244.399 337.846 238.237 388.369 250.946C423.346 259.804 455.214 276.75 485.527 295.236C510.4 310.641 533.329 331.824 564.031 331.824C626.213 332.209 645.256 252.872 665.076 208.581C691.115 150.041 735.031 98.8188 789.439 64.5421C877.271 8.69802 986.477 -0.93027 1082.08 39.5086Z" fill="url(#paint1_radial_44_689)"/>
<path d="M166.387 830.496C-9.35737 699.139 93.29 409.847 262.425 321.248C325.802 288.12 399.677 275.408 470.83 284.653C534.985 293.128 615.081 314.7 680.791 290.046C730.559 271.171 753.499 224.561 779.55 182.187C851.87 64.3131 1034.22 42.3561 1124.82 154.067C1158.26 195.285 1171.87 252.681 1155.53 303.143C1117.04 420.247 987.955 370.17 914.858 432.959C885.697 457.998 877.92 508.075 860.812 541.588C843.316 575.872 821.931 608.615 798.991 639.817C750.778 705.688 692.066 765.781 624.412 812.391C489.493 905.612 320.747 933.347 178.052 838.971C174.164 836.274 170.276 833.578 166.387 830.496Z" fill="url(#paint2_linear_44_689)"/>
<path d="M166.387 830.496C-9.35737 699.139 93.29 409.847 262.425 321.248C325.802 288.12 399.677 275.408 470.83 284.653C534.985 293.128 615.081 314.7 680.791 290.046C730.559 271.171 753.499 224.561 779.55 182.187C851.87 64.3131 1034.22 42.3561 1124.82 154.067C1158.26 195.285 1171.87 252.681 1155.53 303.143C1117.04 420.247 987.955 370.17 914.858 432.959C885.697 457.998 877.92 508.075 860.812 541.588C843.316 575.872 821.931 608.615 798.991 639.817C750.778 705.688 692.066 765.781 624.412 812.391C489.493 905.612 320.747 933.347 178.052 838.971C174.164 836.274 170.276 833.578 166.387 830.496Z" fill="url(#paint3_radial_44_689)"/>
</g>
<g clip-path="url(#clip1_44_689)">
<path d="M66.0167 775.627C-93.9075 654.966 -0.500402 389.229 153.409 307.844C211.081 277.414 278.306 265.737 343.054 274.229C401.433 282.014 474.319 301.829 534.114 279.183C579.402 261.845 600.277 219.03 623.983 180.107C689.792 71.8303 855.731 51.6611 938.17 154.276C968.598 192.137 980.982 244.86 966.121 291.214C931.094 398.783 813.627 352.783 747.11 410.459C720.574 433.459 713.498 479.459 697.93 510.243C682.008 541.736 662.548 571.812 641.673 600.474C597.8 660.981 544.374 716.181 482.81 758.996C360.037 844.627 206.481 870.103 76.6312 783.411C73.0931 780.934 69.5549 778.458 66.0167 775.627Z" fill="url(#paint4_linear_44_689)"/>
<path d="M66.0167 775.627C-93.9075 654.966 -0.500402 389.229 153.409 307.844C211.081 277.414 278.306 265.737 343.054 274.229C401.433 282.014 474.319 301.829 534.114 279.183C579.402 261.845 600.277 219.03 623.983 180.107C689.792 71.8303 855.731 51.6611 938.17 154.276C968.598 192.137 980.982 244.86 966.121 291.214C931.094 398.783 813.627 352.783 747.11 410.459C720.574 433.459 713.498 479.459 697.93 510.243C682.008 541.736 662.548 571.812 641.673 600.474C597.8 660.981 544.374 716.181 482.81 758.996C360.037 844.627 206.481 870.103 76.6312 783.411C73.0931 780.934 69.5549 778.458 66.0167 775.627Z" fill="url(#paint5_radial_44_689)"/>
<path d="M150.223 137.874C131.938 137.874 117.115 123.051 117.115 104.766C117.115 86.4808 131.938 71.658 150.223 71.658C168.508 71.658 183.331 86.4808 183.331 104.766C183.331 123.051 168.508 137.874 150.223 137.874Z" fill="url(#paint6_linear_44_689)"/>
<path d="M350.684 244C334.904 244 322.112 231.208 322.112 215.427C322.112 199.647 334.904 186.855 350.684 186.855C366.464 186.855 379.257 199.647 379.257 215.427C379.257 231.208 366.464 244 350.684 244Z" fill="url(#paint7_linear_44_689)"/>
</g>
<defs>
<linearGradient id="paint0_linear_44_689" x1="124.704" y1="704.248" x2="1591.45" y2="-104.312" gradientUnits="userSpaceOnUse">
<stop stop-color="#FF9370"/>
<stop offset="1" stop-color="#FFDF00"/>
</linearGradient>
<radialGradient id="paint1_radial_44_689" cx="0" cy="0" r="1" gradientUnits="userSpaceOnUse" gradientTransform="translate(721.7 -89.9888) rotate(79.6257) scale(1191.52 1120.69)">
<stop stop-color="#FEBB40"/>
<stop offset="0.5576" stop-color="#EC4C76"/>
<stop offset="0.9726" stop-color="#D60B52"/>
</radialGradient>
<linearGradient id="paint2_linear_44_689" x1="1141.6" y1="-409.018" x2="209.185" y2="1096.37" gradientUnits="userSpaceOnUse">
<stop stop-color="#FFDF00"/>
<stop offset="1" stop-color="#FF9370"/>
</linearGradient>
<radialGradient id="paint3_radial_44_689" cx="0" cy="0" r="1" gradientUnits="userSpaceOnUse" gradientTransform="translate(865.907 146.1) rotate(-122.724) scale(1271.56 2145.94)">
<stop stop-color="#FEBB40"/>
<stop offset="0.5576" stop-color="#EC4C76"/>
<stop offset="0.9726" stop-color="#D60B52"/>
</radialGradient>
<linearGradient id="paint4_linear_44_689" x1="953.441" y1="-362.96" x2="93.3846" y2="1012.61" gradientUnits="userSpaceOnUse">
<stop stop-color="#FFDF00"/>
<stop offset="1" stop-color="#FF9370"/>
</linearGradient>
<radialGradient id="paint5_radial_44_689" cx="0" cy="0" r="1" gradientUnits="userSpaceOnUse" gradientTransform="translate(702.566 146.958) rotate(-122.48) scale(1164.84 1958.1)">
<stop stop-color="#FEBB40"/>
<stop offset="0.5576" stop-color="#EC4C76"/>
<stop offset="0.9726" stop-color="#D60B52"/>
</radialGradient>
<linearGradient id="paint6_linear_44_689" x1="72.8801" y1="159.256" x2="230.746" y2="47.7521" gradientUnits="userSpaceOnUse">
<stop stop-color="#EC4C76"/>
<stop offset="0.703531" stop-color="#FEBB40"/>
<stop offset="1" stop-color="white"/>
</linearGradient>
<linearGradient id="paint7_linear_44_689" x1="283.936" y1="262.453" x2="420.177" y2="166.224" gradientUnits="userSpaceOnUse">
<stop stop-color="#EC4C76"/>
<stop offset="0.5183" stop-color="#FEBB40"/>
<stop offset="1" stop-color="white"/>
</linearGradient>
<clipPath id="clip0_44_689">
<rect width="463.509" height="356.476" fill="white" transform="translate(785.621 14.5131)"/>
</clipPath>
<clipPath id="clip1_44_689">
<rect width="1068.52" height="488" fill="white" transform="matrix(-1 0 0 1 1051.39 0)"/>
</clipPath>
</defs>
</svg>
