<svg width="234" height="178" viewBox="0 0 234 178" fill="none" xmlns="http://www.w3.org/2000/svg">
<path d="M19.6836 162.833C-18.1308 134.295 3.95545 71.4425 40.3476 52.1935C53.9842 44.996 69.8797 42.2342 85.1895 44.2428C98.9934 46.084 116.227 50.7707 130.366 45.4145C141.075 41.3136 146.01 31.1869 151.616 21.9809C167.176 -3.62863 206.413 -8.39904 225.906 15.8714C233.101 24.8264 236.029 37.2964 232.515 48.26C224.233 73.7021 196.458 62.8223 180.729 76.4639C174.455 81.9039 172.782 92.7837 169.101 100.065C165.336 107.513 160.735 114.627 155.799 121.406C145.425 135.717 132.792 148.773 118.235 158.9C89.2052 179.153 52.8967 185.179 22.1934 164.675C21.3568 164.089 20.5202 163.503 19.6836 162.833Z" fill="url(#paint0_radial_201_1108)"/>
<defs>
<radialGradient id="paint0_radial_201_1108" cx="0" cy="0" r="1" gradientUnits="userSpaceOnUse" gradientTransform="translate(170.197 14.1405) rotate(-122.473) scale(275.485 463.035)">
<stop stop-color="#FEBB40"/>
<stop offset="0.5576" stop-color="#EC4C76"/>
<stop offset="0.9726" stop-color="#D60B52"/>
</radialGradient>
</defs>
</svg>
