<svg width="656" height="254" viewBox="0 0 656 254" fill="none" xmlns="http://www.w3.org/2000/svg">
<g clip-path="url(#clip0_109_713)">
<path d="M569.441 20.9397C576.693 23.9332 583.541 27.5253 590.189 31.7161C634.705 59.2557 662.905 112.938 654.646 164.226C646.186 216.311 590.591 290.349 535.601 301.125C517.674 304.717 499.344 299.728 481.819 294.34C452.41 285.36 424.814 270.792 395.808 262.41C384.528 259.217 372.241 258.419 361.364 262.809C342.429 270.393 337.797 286.757 329.739 303.32C320.675 322.079 305.366 337.845 286.835 347.623C248.764 367.58 199.615 358.2 164.365 336.647C111.993 304.717 93.2603 241.855 110.583 184.78C115.015 170.013 122.065 155.445 133.748 145.068C153.689 127.107 183.702 123.914 209.888 130.499C228.017 135.089 244.534 143.87 260.246 153.449C273.137 161.432 285.022 172.408 300.935 172.408C333.164 172.607 343.034 131.497 353.307 108.548C366.802 78.2141 389.564 51.6723 417.764 33.9113C463.288 4.97474 519.889 -0.0143125 569.441 20.9397Z" fill="url(#paint0_linear_109_713)"/>
<path d="M569.458 21.0611C576.706 24.054 583.552 27.6454 590.196 31.8353C634.691 59.3693 662.878 113.041 654.624 164.318C646.167 216.393 590.599 290.415 535.634 301.19C517.715 304.781 499.393 299.793 481.877 294.406C452.482 285.427 424.899 270.862 395.906 262.482C384.632 259.29 372.35 258.492 361.478 262.881C342.552 270.463 337.922 286.824 329.868 303.384C320.808 322.139 305.507 337.902 286.984 347.678C248.931 367.63 199.805 358.253 164.571 336.705C112.224 304.781 93.4995 241.932 110.814 184.868C115.244 170.104 122.291 155.539 133.968 145.164C153.9 127.207 183.899 124.014 210.073 130.599C228.193 135.188 244.703 143.967 260.407 153.544C273.293 161.524 285.172 172.498 301.077 172.498C333.291 172.698 343.156 131.596 353.425 108.651C366.914 78.3239 389.665 51.7875 417.852 34.0301C463.354 5.09941 519.93 0.111365 569.458 21.0611Z" fill="url(#paint1_radial_109_713)"/>
<path d="M95.073 430.841C4.02651 362.79 57.2041 212.919 144.826 167.02C177.659 149.857 215.931 143.272 252.793 148.061C286.029 152.452 327.524 163.627 361.565 150.855C387.348 141.076 399.233 116.929 412.729 94.9776C450.195 33.9115 544.665 22.5364 591.599 80.4095C608.922 101.763 615.972 131.497 607.512 157.64C587.57 218.307 520.695 192.364 482.826 224.893C467.719 237.864 463.69 263.807 454.827 281.169C445.763 298.93 434.684 315.893 422.8 332.058C397.823 366.183 367.407 397.315 332.358 421.462C262.462 469.756 175.041 484.124 101.116 435.231C99.1016 433.834 97.0873 432.437 95.073 430.841Z" fill="url(#paint2_linear_109_713)"/>
<path d="M95.073 430.841C4.02651 362.79 57.2041 212.919 144.826 167.02C177.659 149.857 215.931 143.272 252.793 148.061C286.029 152.452 327.524 163.627 361.565 150.855C387.348 141.076 399.233 116.929 412.729 94.9776C450.195 33.9115 544.665 22.5364 591.599 80.4095C608.922 101.763 615.972 131.497 607.512 157.64C587.57 218.307 520.695 192.364 482.826 224.893C467.719 237.864 463.69 263.807 454.827 281.169C445.763 298.93 434.684 315.893 422.8 332.058C397.823 366.183 367.407 397.315 332.358 421.462C262.462 469.756 175.041 484.124 101.116 435.231C99.1016 433.834 97.0873 432.437 95.073 430.841Z" fill="url(#paint3_radial_109_713)"/>
</g>
<g clip-path="url(#clip1_109_713)">
<path d="M474.74 25.8903C481.339 28.64 487.571 31.9397 493.62 35.7892C534.129 61.0864 559.791 110.398 552.275 157.509C544.577 205.354 493.987 273.363 443.946 283.262C427.633 286.561 410.953 281.979 395.006 277.029C368.245 268.78 343.133 255.398 316.738 247.699C306.473 244.766 295.292 244.033 285.394 248.066C268.164 255.032 263.948 270.063 256.616 285.278C248.368 302.51 234.437 316.991 217.574 325.974C182.931 344.305 138.206 335.689 106.129 315.891C58.4717 286.561 41.425 228.818 57.1886 176.39C61.2212 162.825 67.6366 149.443 78.2678 139.911C96.4143 123.413 123.726 120.48 147.554 126.529C164.051 130.745 179.081 138.811 193.379 147.61C205.11 154.943 215.924 165.025 230.405 165.025C259.732 165.208 268.714 127.446 278.062 106.365C290.343 78.5012 311.056 54.1205 336.717 37.8057C378.143 11.2253 429.649 6.64247 474.74 25.8903Z" fill="url(#paint4_linear_109_713)"/>
<path d="M474.756 26.0017C481.351 28.7508 487.581 32.0498 493.627 35.8986C534.116 61.1906 559.766 110.492 552.254 157.594C544.56 205.429 493.993 273.424 443.976 283.321C427.67 286.62 410.998 282.038 395.059 277.089C368.31 268.842 343.21 255.463 316.827 247.765C306.567 244.833 295.391 244.1 285.498 248.132C268.276 255.096 264.062 270.125 256.733 285.337C248.489 302.565 234.565 317.043 217.709 326.024C183.082 344.352 138.378 335.738 106.316 315.944C58.6813 286.62 41.6426 228.888 57.3988 176.471C61.4295 162.909 67.8419 149.53 78.4682 139.999C96.6062 123.504 123.905 120.572 147.722 126.62C164.211 130.835 179.235 138.9 193.525 147.697C205.251 155.028 216.06 165.108 230.534 165.108C259.848 165.291 268.825 127.536 278.169 106.46C290.444 78.6018 311.147 54.2262 336.797 37.9146C378.203 11.3397 429.686 6.75776 474.756 26.0017Z" fill="url(#paint5_radial_109_713)"/>
<path d="M43.0747 402.415C-39.7759 339.905 8.61474 202.237 88.3492 160.075C118.227 144.31 153.053 138.261 186.597 142.66C216.841 146.693 254.6 156.959 285.577 145.227C309.04 136.245 319.854 114.064 332.135 93.8992C366.228 37.8055 452.195 27.3566 494.903 80.5174C510.667 100.132 517.082 127.446 509.384 151.46C491.237 207.187 430.383 183.356 395.923 213.236C382.175 225.151 378.509 248.982 370.444 264.93C362.196 281.245 352.114 296.827 341.3 311.675C318.571 343.022 290.893 371.618 258.999 393.799C195.395 438.161 115.844 451.36 48.5736 406.448C46.7406 405.165 44.9076 403.881 43.0747 402.415Z" fill="url(#paint6_linear_109_713)"/>
<path d="M43.0747 402.415C-39.7759 339.905 8.61474 202.237 88.3492 160.075C118.227 144.31 153.053 138.261 186.597 142.66C216.841 146.693 254.6 156.959 285.577 145.227C309.04 136.245 319.854 114.064 332.135 93.8992C366.228 37.8055 452.195 27.3566 494.903 80.5174C510.667 100.132 517.082 127.446 509.384 151.46C491.237 207.187 430.383 183.356 395.923 213.236C382.175 225.151 378.509 248.982 370.444 264.93C362.196 281.245 352.114 296.827 341.3 311.675C318.571 343.022 290.893 371.618 258.999 393.799C195.395 438.161 115.844 451.36 48.5736 406.448C46.7406 405.165 44.9076 403.881 43.0747 402.415Z" fill="url(#paint7_radial_109_713)"/>
<path d="M261.977 112.903C253.802 112.903 247.175 106.276 247.175 98.1006C247.175 89.9256 253.802 83.2983 261.977 83.2983C270.152 83.2983 276.779 89.9256 276.779 98.1006C276.779 106.276 270.152 112.903 261.977 112.903Z" fill="url(#paint8_linear_109_713)"/>
<path d="M199.008 69.2007C189.536 69.2007 181.856 61.5215 181.856 52.0488C181.856 42.5761 189.536 34.897 199.008 34.897C208.481 34.897 216.16 42.5761 216.16 52.0488C216.16 61.5215 208.481 69.2007 199.008 69.2007Z" fill="url(#paint9_linear_109_713)"/>
</g>
<defs>
<linearGradient id="paint0_linear_109_713" x1="73.4785" y1="365.437" x2="833.343" y2="-53.4469" gradientUnits="userSpaceOnUse">
<stop stop-color="#FF9370"/>
<stop offset="1" stop-color="#FFDF00"/>
</linearGradient>
<radialGradient id="paint1_radial_109_713" cx="0" cy="0" r="1" gradientUnits="userSpaceOnUse" gradientTransform="translate(382.759 -46.0264) rotate(79.6257) scale(617.281 580.586)">
<stop stop-color="#FEBB40"/>
<stop offset="0.5576" stop-color="#EC4C76"/>
<stop offset="0.9726" stop-color="#D60B52"/>
</radialGradient>
<linearGradient id="paint2_linear_109_713" x1="600.292" y1="-211.303" x2="117.245" y2="568.578" gradientUnits="userSpaceOnUse">
<stop stop-color="#FFDF00"/>
<stop offset="1" stop-color="#FF9370"/>
</linearGradient>
<radialGradient id="paint3_radial_109_713" cx="0" cy="0" r="1" gradientUnits="userSpaceOnUse" gradientTransform="translate(457.467 76.2821) rotate(-122.724) scale(658.744 1111.73)">
<stop stop-color="#FEBB40"/>
<stop offset="0.5576" stop-color="#EC4C76"/>
<stop offset="0.9726" stop-color="#D60B52"/>
</radialGradient>
<linearGradient id="paint4_linear_109_713" x1="23.424" y1="342.336" x2="717.901" y2="-36.9191" gradientUnits="userSpaceOnUse">
<stop stop-color="#FF9370"/>
<stop offset="1" stop-color="#FFDF00"/>
</linearGradient>
<radialGradient id="paint5_radial_109_713" cx="0" cy="0" r="1" gradientUnits="userSpaceOnUse" gradientTransform="translate(304.863 -35.6232) rotate(79.7207) scale(566.848 528.482)">
<stop stop-color="#FEBB40"/>
<stop offset="0.5576" stop-color="#EC4C76"/>
<stop offset="0.9726" stop-color="#D60B52"/>
</radialGradient>
<linearGradient id="paint6_linear_109_713" x1="502.814" y1="-187.443" x2="57.2529" y2="525.187" gradientUnits="userSpaceOnUse">
<stop stop-color="#FFDF00"/>
<stop offset="1" stop-color="#FF9370"/>
</linearGradient>
<radialGradient id="paint7_radial_109_713" cx="0" cy="0" r="1" gradientUnits="userSpaceOnUse" gradientTransform="translate(372.846 76.726) rotate(-122.48) scale(603.457 1014.41)">
<stop stop-color="#FEBB40"/>
<stop offset="0.5576" stop-color="#EC4C76"/>
<stop offset="0.9726" stop-color="#D60B52"/>
</radialGradient>
<linearGradient id="paint8_linear_109_713" x1="227.397" y1="122.463" x2="297.978" y2="72.6102" gradientUnits="userSpaceOnUse">
<stop stop-color="#EC4C76"/>
<stop offset="0.5183" stop-color="#FEBB40"/>
<stop offset="1" stop-color="white"/>
</linearGradient>
<linearGradient id="paint9_linear_109_713" x1="158.94" y1="80.278" x2="240.724" y2="22.5123" gradientUnits="userSpaceOnUse">
<stop stop-color="#EC4C76"/>
<stop offset="0.703531" stop-color="#FEBB40"/>
<stop offset="1" stop-color="white"/>
</linearGradient>
<clipPath id="clip0_109_713">
<rect width="240.126" height="184.676" fill="white" transform="translate(415.874 8.11182)"/>
</clipPath>
<clipPath id="clip1_109_713">
<rect width="553.559" height="252.814" fill="white" transform="matrix(-1 0 0 1 553.559 0.593262)"/>
</clipPath>
</defs>
</svg>
