<svg width="27" height="25" viewBox="0 0 27 25" fill="none" xmlns="http://www.w3.org/2000/svg">
<path d="M16.49 9.13171H15.99C15.99 9.40786 16.2138 9.63171 16.49 9.63171V9.13171ZM16.49 4.51929H16.99H16.49ZM12.7113 1.05997V0.559967C12.5198 0.559967 12.3451 0.669336 12.2615 0.841601L12.7113 1.05997ZM7.67301 11.4379L7.22321 11.2196C7.19017 11.2876 7.17301 11.3623 7.17301 11.4379H7.67301ZM7.67301 24.1221H7.17301C7.17301 24.3982 7.39687 24.6221 7.67301 24.6221V24.1221ZM21.8809 24.1221L21.8861 23.6221H21.8809V24.1221ZM24.4001 22.1618L23.907 22.0792L23.9068 22.0801L24.4001 22.1618ZM26.1383 11.7839L26.6314 11.8665L26.6316 11.8656L26.1383 11.7839ZM23.6192 9.13171L23.6192 9.63174L23.6243 9.63169L23.6192 9.13171ZM7.67284 24.1221V24.6221C7.94899 24.6221 8.17284 24.3982 8.17284 24.1221H7.67284ZM7.67284 11.4379H8.17284C8.17284 11.1618 7.94899 10.9379 7.67284 10.9379V11.4379ZM16.99 9.13171V4.51929H15.99V9.13171H16.99ZM16.99 4.51929C16.99 2.29197 15.0319 0.559967 12.7113 0.559967V1.55997C14.5645 1.55997 15.99 2.92555 15.99 4.51929H16.99ZM12.2615 0.841601L7.22321 11.2196L8.1228 11.6563L13.1611 1.27833L12.2615 0.841601ZM7.17301 11.4379V24.1221H8.17301V11.4379H7.17301ZM7.67301 24.6221H21.8809V23.6221H7.67301V24.6221ZM21.8758 24.6221C23.3454 24.6373 24.6595 23.6551 24.8934 22.2435L23.9068 22.0801C23.7639 22.9427 22.9288 23.6329 21.8861 23.6221L21.8758 24.6221ZM24.8932 22.2444L26.6314 11.8665L25.6452 11.7013L23.907 22.0792L24.8932 22.2444ZM26.6316 11.8656C26.7692 11.0351 26.4993 10.1993 25.9112 9.58014L25.1861 10.2688C25.568 10.6709 25.7292 11.1946 25.645 11.7021L26.6316 11.8656ZM25.9112 9.58014C25.3253 8.96338 24.4841 8.62272 23.614 8.63174L23.6243 9.63169C24.2323 9.62538 24.802 9.86442 25.1861 10.2688L25.9112 9.58014ZM23.6192 8.63171H16.49V9.63171H23.6192V8.63171ZM7.67284 23.6221H3.89414V24.6221H7.67284V23.6221ZM3.89414 23.6221C2.73652 23.6221 1.875 22.7728 1.875 21.8159H0.875C0.875 23.4064 2.26919 24.6221 3.89414 24.6221V23.6221ZM1.875 21.8159V13.7441H0.875V21.8159H1.875ZM1.875 13.7441C1.875 12.7872 2.73652 11.9379 3.89414 11.9379V10.9379C2.26919 10.9379 0.875 12.1537 0.875 13.7441H1.875ZM3.89414 11.9379H7.67284V10.9379H3.89414V11.9379ZM7.17284 11.4379V24.1221H8.17284V11.4379H7.17284Z" fill="#F59256"/>
</svg>
