<svg width="20" height="20" viewBox="0 0 20 20" fill="none" xmlns="http://www.w3.org/2000/svg">
<path d="M9.99984 7.7085C8.50407 7.7085 7.2915 8.92106 7.2915 10.4168C7.2915 11.9126 8.50407 13.1252 9.99984 13.1252C11.4956 13.1252 12.7082 11.9126 12.7082 10.4168C12.7082 8.92106 11.4956 7.7085 9.99984 7.7085Z" fill="#F59256"/>
<path fill-rule="evenodd" clip-rule="evenodd" d="M7.70817 0.208496C6.55758 0.208496 5.62484 1.14124 5.62484 2.29183V2.44064C5.62484 2.81869 5.31837 3.12516 4.94031 3.12516C2.78706 3.12516 1.0415 4.87072 1.0415 7.02397V10.8663C1.0415 12.2024 1.04149 13.2499 1.12106 14.0867C1.20216 14.9397 1.37031 15.6381 1.7476 16.2538C2.1427 16.8985 2.68479 17.4406 3.32953 17.8357C3.94522 18.213 4.64364 18.3812 5.49659 18.4623C6.3334 18.5418 7.38085 18.5418 8.71698 18.5418H11.2826C12.6188 18.5418 13.6663 18.5418 14.5031 18.4623C15.356 18.3812 16.0545 18.213 16.6701 17.8357C17.3149 17.4406 17.857 16.8985 18.2521 16.2538C18.6294 15.6381 18.7975 14.9397 18.8786 14.0867C18.9582 13.2499 18.9582 12.2025 18.9582 10.8664V7.02397C18.9582 4.87072 17.2126 3.12516 15.0594 3.12516C14.6813 3.12516 14.3748 2.81869 14.3748 2.44064V2.29183C14.3748 1.14124 13.4421 0.208496 12.2915 0.208496H7.70817ZM6.0415 10.4168C6.0415 8.2307 7.81371 6.4585 9.99984 6.4585C12.186 6.4585 13.9582 8.2307 13.9582 10.4168C13.9582 12.603 12.186 14.3752 9.99984 14.3752C7.81371 14.3752 6.0415 12.603 6.0415 10.4168ZM14.9998 7.91683C14.5396 7.91683 14.1665 7.54373 14.1665 7.0835C14.1665 6.62326 14.5396 6.25016 14.9998 6.25016C15.4601 6.25016 15.8332 6.62326 15.8332 7.0835C15.8332 7.54373 15.4601 7.91683 14.9998 7.91683Z" fill="#F59256"/>
</svg>
